<svg xmlns="http://www.w3.org/2000/svg" viewBox="0 0 988.67 988.67">
  <path d="M853.24,492.84l135-222c1.4-2.3-.8-5-3.3-4.2l-388.3,129c-2.2.7-4.4-1.4-3.6-3.6L722.04,3.74c.8-2.5-1.9-4.7-4.2-3.3l-222,135c-.9.6-2.1.6-3,0L270.84.44c-2.3-1.4-5,.8-4.2,3.3l129,388.3c.7,2.2-1.4,4.4-3.6,3.6L3.74,266.64c-2.5-.8-4.7,1.9-3.3,4.2l135,222c.6.9.6,2.1,0,3L.44,717.84c-1.4,2.3.8,5,3.3,4.2l388.3-129c2.2-.7,4.4,1.4,3.6,3.6l-129,388.3c-.8,2.5,1.9,4.7,4.2,3.3l222-135c.9-.6,2.1-.6,3,0l222,135c2.3,1.4,5-.8,4.2-3.3l-129-388.3c-.7-2.2,1.4-4.4,3.6-3.6l388.3,129c2.5.8,4.7-1.9,3.3-4.2l-135-222c-.5-.9-.5-2.1,0-3Z" />
</svg>
